<svg width="16" height="16" viewBox="0 0 16 16" fill="none" xmlns="http://www.w3.org/2000/svg">
    <path d="M8 16.0076C3.61364 16.0076 0 12.3939 0 8C0 3.61364 3.60606 0 8 0C12.3864 0 16 3.61364 16 8C16 12.3939 12.3939 16.0076 8 16.0076Z" fill="#FF4F47"/>
    <path d="M8.86346 8.29168C8.83316 8.83687 8.53013 9.13219 8.0074 9.13219C7.46952 9.13219 7.15891 8.83687 7.13619 8.29925L7.01497 5.02807C6.98467 4.45259 7.39376 4.06641 7.99982 4.06641C8.59831 4.06641 9.01497 4.46016 8.98467 5.02807L8.86346 8.29168Z" fill="white"/>
    <path d="M9.068 10.9041C9.068 11.4871 8.60588 11.8657 8.0074 11.8657C7.40134 11.8657 6.93164 11.4871 6.93164 10.9041C6.93164 10.3362 7.40134 9.94998 8.0074 9.94998C8.61346 9.94998 9.068 10.3362 9.068 10.9041Z" fill="white"/>
</svg>
