<svg width="16" height="16" viewBox="0 0 16 16" fill="none" xmlns="http://www.w3.org/2000/svg">
    <path d="M8 16.0076C3.61364 16.0076 0 12.3939 0 8C0 3.61364 3.60606 0 8 0C12.3864 0 16 3.61364 16 8C16 12.3939 12.3939 16.0076 8 16.0076Z" fill="#04A45A"/>
    <path d="M7.98432 11.3484C7.78735 11.6363 7.49189 11.803 7.16613 11.803C6.82522 11.803 6.56007 11.6514 6.31765 11.356L4.53735 9.23477C4.3631 9.02265 4.29492 8.83326 4.29492 8.61356C4.29492 8.14387 4.67371 7.77265 5.13583 7.77265C5.40856 7.77265 5.62068 7.87871 5.82522 8.12114L7.14341 9.74993L10.098 5.05296C10.2949 4.73477 10.5449 4.57568 10.8404 4.57568C11.2949 4.57568 11.7116 4.90902 11.7116 5.37871C11.7116 5.56811 11.6358 5.77265 11.4995 5.96962L7.98432 11.3484Z" fill="white"/>
</svg>
