<svg width="70" height="70" viewBox="0 0 70 70" fill="none" xmlns="http://www.w3.org/2000/svg">
    <path d="M35.0002 66.9364C17.2889 66.9364 2.90234 52.5499 2.90234 34.8386C2.90234 17.1273 17.2889 2.74072 35.0002 2.74072C52.7115 2.74072 67.098 17.1273 67.098 34.8386C67.098 52.5499 52.7115 66.9364 35.0002 66.9364Z" fill="#04A45A"/>
    <path d="M34.4103 48.5412C33.6957 49.5977 32.7013 50.1881 31.5517 50.1881C30.3709 50.1881 29.4077 49.6598 28.5376 48.5412L20.9249 39.2816C20.3656 38.5981 20.0859 37.8523 20.0859 37.0755C20.0859 35.4908 21.3288 34.1858 22.9446 34.1858C23.9078 34.1858 24.6536 34.5586 25.4304 35.553L31.4274 43.1657L44.2914 22.5957C44.9439 21.5082 45.8139 20.98 46.8082 20.98C48.3619 20.98 49.7601 22.0675 49.7601 23.6833C49.7601 24.3979 49.3872 25.1748 48.9522 25.8584L34.4103 48.5412Z" fill="white"/>
</svg>