<svg width="18" height="18" viewBox="0 0 18 18" fill="none" xmlns="http://www.w3.org/2000/svg">
    <path fill-rule="evenodd" clip-rule="evenodd" d="M12.75 14.25L12.75 15C12.75 15.8284 12.0784 16.5 11.25 16.5H4.5C3.67157 16.5 3 15.8284 3 15V5.25C3 4.42157 3.67157 3.75 4.5 3.75H5.25V3C5.25 2.17157 5.92157 1.5 6.75 1.5H13.5C14.3284 1.5 15 2.17157 15 3V12.75C15 13.5784 14.3284 14.25 13.5 14.25H12.75ZM13.5 2.625H6.75C6.54289 2.625 6.375 2.79289 6.375 3V3.75H11.25C12.0784 3.75 12.75 4.42157 12.75 5.25L12.75 13.125H13.5C13.7071 13.125 13.875 12.9571 13.875 12.75V3C13.875 2.79289 13.7071 2.625 13.5 2.625ZM4.5 4.875H11.25C11.4571 4.875 11.625 5.04289 11.625 5.25V15C11.625 15.2071 11.4571 15.375 11.25 15.375H4.5C4.29289 15.375 4.125 15.2071 4.125 15V5.25C4.125 5.04289 4.29289 4.875 4.5 4.875Z" fill="white" fill-opacity="0.3"/>
</svg>
