<svg width="10" height="14" viewBox="0 0 10 14" fill="none" xmlns="http://www.w3.org/2000/svg">
    <path opacity="0.3" d="M1.87109 13.0508C1.27344 13.0508 0.824219 12.8984 0.523438 12.5938C0.222656 12.293 0.0722656 11.8418 0.0722656 11.2402V2.33398C0.0722656 1.7207 0.222656 1.26172 0.523438 0.957031C0.828125 0.648437 1.2832 0.494141 1.88867 0.494141H8.11133C8.7168 0.494141 9.16992 0.648437 9.4707 0.957031C9.77539 1.26563 9.92773 1.72461 9.92773 2.33398V9.05469C9.92773 9.34766 9.87305 9.57617 9.76367 9.74023C9.6543 9.9043 9.54492 10.041 9.43555 10.1504C9.19336 10.3965 9.04492 10.6543 8.99023 10.9238C8.93555 11.1895 8.96094 11.4316 9.06641 11.6504C9.17578 11.873 9.35352 12.0332 9.59961 12.1309C9.69336 12.1621 9.77148 12.2188 9.83398 12.3008C9.89648 12.3867 9.92773 12.4805 9.92773 12.582C9.92773 12.7109 9.88086 12.8203 9.78711 12.9102C9.69727 13.0039 9.58789 13.0508 9.45898 13.0508H1.87109ZM1.01562 9.66406C1.14453 9.58594 1.28711 9.52734 1.44336 9.48828C1.60352 9.44531 1.7793 9.42383 1.9707 9.42383H8.47461C8.81445 9.42383 8.98438 9.25781 8.98438 8.92578V2.35156C8.98438 2.05859 8.90625 1.83398 8.75 1.67773C8.59766 1.51758 8.36914 1.4375 8.06445 1.4375H1.92969C1.62891 1.4375 1.40039 1.51758 1.24414 1.67773C1.0918 1.83398 1.01562 2.05859 1.01562 2.35156V9.66406ZM1.92383 12.1074H8.27539C8.11914 11.8535 8.03125 11.5723 8.01172 11.2637C7.99609 10.959 8.05664 10.6543 8.19336 10.3496C8.13086 10.3613 8.0625 10.3672 7.98828 10.3672H1.97656C1.68359 10.3672 1.44922 10.4473 1.27344 10.6074C1.10156 10.7637 1.01562 10.9727 1.01562 11.2344C1.01562 11.5117 1.0918 11.7266 1.24414 11.8789C1.40039 12.0312 1.62695 12.1074 1.92383 12.1074ZM1.70703 9.92773V1.20898H2.47461V9.92773H1.70703Z" fill="white"/>
</svg>
