<svg width="18" height="18" viewBox="0 0 18 18" fill="none" xmlns="http://www.w3.org/2000/svg">
    <path d="M14.0084 14.8299C14.2351 15.0567 14.6028 15.0567 14.8295 14.8299C15.0563 14.6032 15.0563 14.2355 14.8295 14.0088L13.1531 12.3324C13.153 12.3325 13.1533 12.3323 13.1531 12.3324L12.2967 11.4752C12.2965 11.4752 12.2968 11.4751 12.2967 11.4752L11.5822 10.7615C11.5821 10.7616 11.5824 10.7614 11.5822 10.7615L9.20698 8.38547C9.20686 8.3856 9.2071 8.38534 9.20698 8.38547L7.29115 6.4704C7.29102 6.47052 7.29128 6.47028 7.29115 6.4704L5.95719 5.13568C5.95701 5.13575 5.95737 5.13561 5.95719 5.13568L3.99082 3.17007C3.76406 2.94331 3.39642 2.94331 3.16966 3.17007C2.94291 3.39682 2.94291 3.76447 3.16966 3.99122L14.0084 14.8299Z" fill="white" fill-opacity="0.3"/>
    <path d="M9.75347 11.6648L5.7541 7.66547C5.72461 7.84789 5.70928 8.03505 5.70928 8.22579C5.70928 10.1499 7.26907 11.7097 9.19315 11.7097C9.38389 11.7097 9.57105 11.6943 9.75347 11.6648Z" fill="white" fill-opacity="0.3"/>
    <path d="M2.75991 9.00067C3.44284 8.13589 4.20466 7.44486 5.0123 6.92367L4.17483 6.0862C3.22197 6.73746 2.34018 7.59274 1.57091 8.64663C1.54368 8.68212 1.52096 8.7203 1.50289 8.76028C1.46917 8.83448 1.45222 8.91349 1.45123 8.99218C1.45 9.07911 1.4682 9.16684 1.50695 9.24846C1.52406 9.28468 1.54502 9.31934 1.56974 9.35179C3.54032 12.0626 6.24965 13.4544 9.0002 13.4516C9.75072 13.4508 10.4982 13.3462 11.2283 13.1397L10.2622 12.1736C9.8423 12.2511 9.41998 12.2899 8.99902 12.2903C6.77209 12.2926 4.50767 11.2223 2.75991 9.00067Z" fill="white" fill-opacity="0.3"/>
    <path d="M13.8278 11.9114C14.7793 11.2605 15.6599 10.406 16.4283 9.35338C16.4556 9.31772 16.4784 9.27934 16.4966 9.23915C16.5302 9.16502 16.547 9.08611 16.548 9.00752C16.5492 8.92089 16.5311 8.83348 16.4925 8.75211C16.4754 8.71566 16.4543 8.68077 16.4294 8.64813C14.4589 5.9373 11.7495 4.54559 8.99901 4.54838C8.25003 4.54914 7.50413 4.65329 6.77539 4.859L8.02749 6.11111C8.0921 6.10165 8.15818 6.09676 8.22541 6.09676C8.97367 6.09676 9.58025 6.70334 9.58025 7.4516C9.58025 7.51883 9.57535 7.58491 9.5659 7.64952L12.0853 10.1689C12.4589 9.61379 12.677 8.94526 12.677 8.22579C12.677 7.58659 12.5049 6.9876 12.2044 6.47265C13.3026 7.01683 14.3394 7.85546 15.2393 8.99929C14.5574 9.86283 13.7968 10.5531 12.9904 11.074L13.8278 11.9114Z" fill="white" fill-opacity="0.3"/>
</svg>
