<svg width="18" height="18" viewBox="0 0 18 18" fill="none" xmlns="http://www.w3.org/2000/svg">
    <path fill-rule="evenodd" clip-rule="evenodd" d="M9.00022 13.5C11.7799 13.4972 14.5175 12.0856 16.5091 9.35717C16.5365 9.32148 16.5593 9.2831 16.5776 9.24292C16.6119 9.16765 16.6291 9.08746 16.6301 9.00761C16.6313 8.92004 16.6129 8.83168 16.574 8.74943C16.5567 8.71258 16.5354 8.67732 16.5102 8.64434C14.5182 5.90403 11.7795 4.49719 8.99903 4.5C6.21935 4.50282 3.48169 5.91442 1.49015 8.64284C1.46284 8.67844 1.44002 8.71672 1.42182 8.7568C1.38743 8.83215 1.37017 8.91243 1.3692 8.99238C1.36799 9.07994 1.38631 9.16831 1.42524 9.25056C1.44259 9.28741 1.46389 9.32267 1.48902 9.35566C3.48102 12.096 6.21979 13.5028 9.00022 13.5ZM8.99903 12.3261C6.74789 12.3284 4.45886 11.2464 2.6921 9.00069C3.74904 7.66231 4.9929 6.73562 6.30372 6.20646C5.90646 6.77662 5.67352 7.4698 5.67352 8.21739C5.67352 10.1624 7.25025 11.7391 9.19526 11.7391C11.1403 11.7391 12.717 10.1624 12.717 8.21739C12.717 7.57124 12.543 6.96573 12.2393 6.44517C13.3494 6.99526 14.3975 7.84302 15.3071 8.9993C13.54 11.2369 11.2504 12.3238 8.99903 12.3261ZM9.58654 7.43479C9.58654 8.19118 8.97336 8.80435 8.21697 8.80435C7.46058 8.80435 6.84741 8.19118 6.84741 7.43479C6.84741 6.6784 7.46058 6.06522 8.21697 6.06522C8.97336 6.06522 9.58654 6.6784 9.58654 7.43479Z" fill="white" fill-opacity="0.3"/>
</svg>
