<svg width="14" height="14" viewBox="0 0 14 14" fill="none" xmlns="http://www.w3.org/2000/svg">
    <g opacity="0.5">
        <path d="M7 1.705C7 1.435 7 1.285 7 1C5.395 1 3.895 1.63 2.755 2.755C1.63 3.895 1 5.395 1 7C1.24 7 1.465 7 1.705 7C1.705 4.075 4.075 1.705 7 1.705Z" fill="url(#paint0_linear_1097_2766)"/>
        <path d="M7 1.705C7 1.435 7 1.285 7 1C8.605 1 10.105 1.63 11.245 2.755C12.37 3.895 13 5.395 13 7C12.76 7 12.535 7 12.295 7C12.295 4.075 9.925 1.705 7 1.705Z" fill="url(#paint1_linear_1097_2766)"/>
        <path d="M12.295 7C12.295 9.91 9.91 12.295 7 12.295C4.075 12.295 1.705 9.925 1.705 7C1.465 7 1.24 7 1 7C1 8.605 1.63 10.105 2.755 11.245C3.895 12.37 5.395 13 7 13C8.605 13 10.105 12.37 11.245 11.245C12.37 10.105 13 8.605 13 7H12.295Z" fill="white"/>
    </g>
    <defs>
        <linearGradient id="paint0_linear_1097_2766" x1="3.625" y1="2.5" x2="-0.125" y2="5.8" gradientUnits="userSpaceOnUse">
            <stop offset="0.046875" stop-color="white" stop-opacity="0"/>
            <stop offset="0.364583" stop-color="white" stop-opacity="0.2567"/>
            <stop offset="1" stop-color="white"/>
        </linearGradient>
        <linearGradient id="paint1_linear_1097_2766" x1="10.375" y1="2.5" x2="14.125" y2="5.8" gradientUnits="userSpaceOnUse">
            <stop offset="0.046875" stop-color="white" stop-opacity="0"/>
            <stop offset="0.364583" stop-color="white" stop-opacity="0.2567"/>
            <stop offset="1" stop-color="white"/>
        </linearGradient>
    </defs>
</svg>
