<svg width="16" height="16" viewBox="0 0 16 16" fill="none" xmlns="http://www.w3.org/2000/svg">
    <g opacity="0.3">
        <path fill-rule="evenodd" clip-rule="evenodd" d="M12.6514 11.8931C13.7682 11.6319 14.5999 10.6297 14.5999 9.43341C14.5999 8.2908 13.8412 7.32522 12.7999 7.01334V6.46675C12.7999 3.81578 10.6509 1.66675 7.9999 1.66675C5.34894 1.66675 3.1999 3.81578 3.1999 6.46675L3.2041 7.01208C2.16067 7.32262 1.3999 8.28926 1.3999 9.43341C1.3999 10.8284 2.5308 11.9593 3.92583 11.9593C4.50266 11.9593 4.97027 11.4917 4.97027 10.9149V7.95193C4.97027 7.49728 4.67973 7.11031 4.27398 6.9669L4.22953 6.95119L4.13324 6.93237V6.46675C4.13324 4.33125 5.8644 2.60008 7.9999 2.60008C10.1354 2.60008 11.8666 4.33125 11.8666 6.46675V6.92716L11.7703 6.95119L11.7258 6.9669C11.3201 7.11031 11.0295 7.49728 11.0295 7.95193V10.9149C11.0295 11.3952 11.3538 11.7999 11.7954 11.9218L11.8443 11.9353V12.3964C11.8443 13.1696 11.2175 13.7964 10.4443 13.7964H9.37101L9.3553 13.7519C9.21189 13.3462 8.82493 13.0556 8.37027 13.0556H7.62953C7.0527 13.0556 6.58509 13.5232 6.58509 14.1001C6.58509 14.6769 7.0527 15.1445 7.62953 15.1445H8.37027C8.77097 15.1445 9.11908 14.9189 9.29429 14.5874L9.31306 14.5519H10.4443C11.6348 14.5519 12.5999 13.5869 12.5999 12.3964V11.9051L12.6514 11.8931Z" fill="white"/>
    </g>
</svg>
