<svg width="106" height="93" viewBox="0 0 106 93" fill="none" xmlns="http://www.w3.org/2000/svg">
    <path d="M53 3C25.3858 3 3 25.3858 3 53H103C103 25.3858 80.6142 3 53 3Z" fill="#21232D"/>
    <path d="M53 1.5C81.4427 1.5 104.5 24.5573 104.5 53V54.5H1.5V53C1.5 24.5573 24.5573 1.5 53 1.5Z" stroke="black" stroke-opacity="0.05" stroke-width="3"/>
    <rect y="53" width="106" height="3" fill="#21232D"/>
    <circle cx="38" cy="38" r="38" transform="matrix(-1 0 0 1 91 15)" fill="url(#paint0_linear_672_3364)"/>
    <path fill-rule="evenodd" clip-rule="evenodd" d="M68.5672 66.028C72.3047 65.1541 75.0881 61.8001 75.0881 57.7965C75.0881 53.9727 72.5489 50.7413 69.0642 49.6975V47.8683C69.0642 38.9966 61.8723 31.8047 53.0006 31.8047C44.1289 31.8047 36.937 38.9966 36.937 47.8683L36.951 49.6933C33.4591 50.7326 30.9131 53.9675 30.9131 57.7965C30.9131 62.4651 34.6977 66.2498 39.3663 66.2498C41.2967 66.2498 42.8617 64.6849 42.8617 62.7545V52.8386C42.8617 51.3171 41.8893 50.0221 40.5315 49.5421L40.3827 49.4896L40.0604 49.4266V47.8683C40.0604 40.7217 45.8539 34.9282 53.0006 34.9282C60.1472 34.9282 65.9407 40.7217 65.9407 47.8683V49.4092L65.6185 49.4896L65.4697 49.5421C64.1118 50.0221 63.1395 51.3171 63.1395 52.8386V62.7545C63.1395 64.3618 64.2246 65.7162 65.7026 66.1242L65.8664 66.1693V67.7124C65.8664 70.2999 63.7687 72.3976 61.1811 72.3976H57.5891L57.5366 72.2488C57.0566 70.891 55.7616 69.9186 54.2401 69.9186H51.7611C49.8307 69.9186 48.2658 71.4836 48.2658 73.414C48.2658 75.3444 49.8307 76.9093 51.7611 76.9093H54.2401C55.581 76.9093 56.746 76.1542 57.3324 75.045L57.3952 74.9261H61.1811C65.1652 74.9261 68.3949 71.6964 68.3949 67.7124V66.0683L68.5672 66.028ZM39.5894 62.9776V52.6155H39.3663C36.5049 52.6155 34.1853 54.9352 34.1853 57.7965C34.1853 60.6579 36.5049 62.9776 39.3663 62.9776H39.5894ZM66.6348 52.6155H66.4117V62.9776H66.6348C69.4962 62.9776 71.8159 60.6579 71.8159 57.7965C71.8159 54.9352 69.4962 52.6155 66.6348 52.6155ZM54.2401 72.4472H51.7611C51.2272 72.4472 50.7943 72.88 50.7943 73.414C50.7943 73.9479 51.2272 74.3808 51.7611 74.3808H54.2401C54.774 74.3808 55.2069 73.9479 55.2069 73.414C55.2069 72.88 54.774 72.4472 54.2401 72.4472Z" fill="url(#paint1_linear_672_3364)"/>
    <path d="M39.5894 52.6155V62.9776H39.3663C36.5049 62.9776 34.1853 60.6579 34.1853 57.7965C34.1853 54.9352 36.5049 52.6155 39.3663 52.6155H39.5894Z" fill="url(#paint2_linear_672_3364)"/>
    <path d="M66.4117 52.6155H66.6348C69.4962 52.6155 71.8159 54.9352 71.8159 57.7965C71.8159 60.6579 69.4962 62.9776 66.6348 62.9776H66.4117V52.6155Z" fill="url(#paint3_linear_672_3364)"/>
    <path d="M51.7611 72.4472H54.2401C54.774 72.4472 55.2069 72.88 55.2069 73.414C55.2069 73.9479 54.774 74.3808 54.2401 74.3808H51.7611C51.2272 74.3808 50.7943 73.9479 50.7943 73.414C50.7943 72.88 51.2272 72.4472 51.7611 72.4472Z" fill="url(#paint4_linear_672_3364)"/>
    <defs>
        <linearGradient id="paint0_linear_672_3364" x1="38" y1="-7.77273" x2="38" y2="76" gradientUnits="userSpaceOnUse">
            <stop stop-color="white" stop-opacity="0.1"/>
            <stop offset="1" stop-color="white" stop-opacity="0.02"/>
        </linearGradient>
        <linearGradient id="paint1_linear_672_3364" x1="53.0006" y1="31.8047" x2="53.0006" y2="76.9093" gradientUnits="userSpaceOnUse">
            <stop stop-color="white" stop-opacity="0.5"/>
            <stop offset="1" stop-color="white" stop-opacity="0.3"/>
        </linearGradient>
        <linearGradient id="paint2_linear_672_3364" x1="53.0006" y1="31.8047" x2="53.0006" y2="76.9093" gradientUnits="userSpaceOnUse">
            <stop stop-color="white" stop-opacity="0.5"/>
            <stop offset="1" stop-color="white" stop-opacity="0.3"/>
        </linearGradient>
        <linearGradient id="paint3_linear_672_3364" x1="53.0006" y1="31.8047" x2="53.0006" y2="76.9093" gradientUnits="userSpaceOnUse">
            <stop stop-color="white" stop-opacity="0.5"/>
            <stop offset="1" stop-color="white" stop-opacity="0.3"/>
        </linearGradient>
        <linearGradient id="paint4_linear_672_3364" x1="53.0006" y1="31.8047" x2="53.0006" y2="76.9093" gradientUnits="userSpaceOnUse">
            <stop stop-color="white" stop-opacity="0.5"/>
            <stop offset="1" stop-color="white" stop-opacity="0.3"/>
        </linearGradient>
    </defs>
</svg>
