<svg width="15" height="14" viewBox="0 0 15 14" fill="none" xmlns="http://www.w3.org/2000/svg">
    <g clip-path="url(#clip0_676_3395)">
        <path d="M7.5 14C11.366 14 14.5 10.866 14.5 7C14.5 3.13401 11.366 0 7.5 0C3.63401 0 0.5 3.13401 0.5 7C0.5 10.866 3.63401 14 7.5 14Z" fill="url(#paint0_linear_676_3395)"/>
        <path d="M5.23828 7.51145L6.06877 9.81014C6.06877 9.81014 6.17261 10.0252 6.28379 10.0252C6.39497 10.0252 8.04866 8.30485 8.04866 8.30485L9.88762 4.75293L5.26791 6.91809L5.23828 7.51145Z" fill="#C8DAEA"/>
        <path d="M6.33995 8.10107L6.18053 9.79542C6.18053 9.79542 6.11379 10.3146 6.63284 9.79542C7.15189 9.27626 7.64872 8.87592 7.64872 8.87592" fill="#A9C6D8"/>
        <path d="M5.25337 7.59367L3.54502 7.03705C3.54502 7.03705 3.34086 6.95422 3.4066 6.76639C3.42013 6.72765 3.44743 6.6947 3.5291 6.63805C3.90762 6.37421 10.5353 3.99205 10.5353 3.99205C10.5353 3.99205 10.7224 3.929 10.8328 3.97094C10.8601 3.97939 10.8847 3.99494 10.904 4.016C10.9233 4.03707 10.9367 4.06288 10.9427 4.09081C10.9547 4.14014 10.9597 4.1909 10.9576 4.2416C10.957 4.28547 10.9517 4.32613 10.9477 4.38989C10.9073 5.04118 9.69936 9.90198 9.69936 9.90198C9.69936 9.90198 9.62709 10.1864 9.36815 10.1962C9.30451 10.1982 9.24111 10.1874 9.18173 10.1645C9.12235 10.1415 9.06821 10.1068 9.02252 10.0625C8.51438 9.62536 6.75808 8.44504 6.36999 8.18546C6.36123 8.1795 6.35386 8.17172 6.34837 8.16267C6.34287 8.15361 6.33939 8.14348 6.33814 8.13296C6.33271 8.1056 6.36246 8.07171 6.36246 8.07171C6.36246 8.07171 9.42065 5.35338 9.50202 5.06801C9.50832 5.0459 9.48452 5.035 9.45255 5.04468C9.24944 5.1194 5.72832 7.34301 5.33971 7.58842C5.31173 7.59688 5.28217 7.59868 5.25337 7.59367Z" fill="white"/>
    </g>
    <defs>
        <linearGradient id="paint0_linear_676_3395" x1="7.5" y1="14" x2="7.5" y2="0" gradientUnits="userSpaceOnUse">
            <stop stop-color="#1D93D2"/>
            <stop offset="1" stop-color="#38B0E3"/>
        </linearGradient>
        <clipPath id="clip0_676_3395">
            <rect width="14" height="14" fill="white" transform="translate(0.5)"/>
        </clipPath>
    </defs>
</svg>
