<svg width="16" height="16" viewBox="0 0 16 16" fill="none" xmlns="http://www.w3.org/2000/svg">
    <path fill-rule="evenodd" clip-rule="evenodd" d="M8.00016 13.6668C11.1298 13.6668 13.6668 11.1298 13.6668 8.00016C13.6668 4.87055 11.1298 2.3335 8.00016 2.3335C4.87055 2.3335 2.3335 4.87055 2.3335 8.00016C2.3335 11.1298 4.87055 13.6668 8.00016 13.6668ZM8.00016 14.6668C11.6821 14.6668 14.6668 11.6821 14.6668 8.00016C14.6668 4.31826 11.6821 1.3335 8.00016 1.3335C4.31826 1.3335 1.3335 4.31826 1.3335 8.00016C1.3335 11.6821 4.31826 14.6668 8.00016 14.6668Z" fill="white" fill-opacity="0.3"/>
    <path fill-rule="evenodd" clip-rule="evenodd" d="M6.66683 6.3335C6.66683 5.89418 6.83359 5.5971 7.06323 5.40225C7.30375 5.19817 7.64226 5.0835 8.00016 5.0835C8.35806 5.0835 8.69657 5.19817 8.93709 5.40225C9.16674 5.5971 9.3335 5.89418 9.3335 6.3335C9.3335 6.63539 9.24802 6.81504 9.13402 6.95438C9.002 7.11574 8.81785 7.243 8.55615 7.41747L8.53379 7.43236C8.29836 7.58918 7.99447 7.7916 7.75902 8.07938C7.49802 8.39837 7.3335 8.80206 7.3335 9.3335C7.3335 9.60964 7.55735 9.8335 7.8335 9.8335C8.10964 9.8335 8.3335 9.60964 8.3335 9.3335C8.3335 9.0316 8.41897 8.85195 8.53297 8.71261C8.665 8.55126 8.84914 8.42399 9.11085 8.24952L9.1332 8.23463C9.36863 8.07781 9.67252 7.87539 9.90797 7.58762C10.169 7.26862 10.3335 6.86494 10.3335 6.3335C10.3335 5.60615 10.0419 5.02822 9.58407 4.63974C9.13709 4.26048 8.55893 4.0835 8.00016 4.0835C7.4414 4.0835 6.86324 4.26048 6.41626 4.63974C5.95841 5.02822 5.66683 5.60615 5.66683 6.3335C5.66683 6.60964 5.89069 6.8335 6.16683 6.8335C6.44297 6.8335 6.66683 6.60964 6.66683 6.3335ZM7.8335 12.0002C8.20169 12.0002 8.50016 11.7017 8.50016 11.3335C8.50016 10.9653 8.20169 10.6668 7.8335 10.6668C7.46531 10.6668 7.16683 10.9653 7.16683 11.3335C7.16683 11.7017 7.46531 12.0002 7.8335 12.0002Z" fill="white" fill-opacity="0.3"/>
</svg>