<svg width="44" height="44" viewBox="0 0 44 44" fill="none" xmlns="http://www.w3.org/2000/svg">
    <path d="M7.95468 39.8438C4.79151 39.8438 2.875 37.608 2.875 34.709C2.875 33.8185 3.09828 32.909 3.60067 32.0564L18.0396 6.43954C18.9885 4.71533 20.6632 3.84375 22.375 3.84375C24.0868 3.84375 25.7428 4.71533 26.7104 6.43954L41.1493 32.0564C41.6145 32.8901 41.875 33.8185 41.875 34.709C41.875 37.608 39.9585 39.8438 36.7953 39.8438H7.95468ZM22.3936 27.1869C23.3053 27.1869 23.8449 26.6374 23.8635 25.6143L24.1427 15.3259C24.1613 14.3216 23.3798 13.5827 22.375 13.5827C21.333 13.5827 20.6073 14.3027 20.626 15.3069L20.8678 25.6143C20.8864 26.6185 21.426 27.1869 22.3936 27.1869ZM22.3936 33.5343C23.4914 33.5343 24.459 32.6437 24.459 31.5069C24.459 30.3511 23.51 29.4606 22.3936 29.4606C21.2586 29.4606 20.3096 30.3701 20.3096 31.5069C20.3096 32.6248 21.2772 33.5343 22.3936 33.5343Z" fill="#FF9D14"/>
</svg>