<svg width="100" height="15" viewBox="0 0 100 15" fill="none" xmlns="http://www.w3.org/2000/svg">
    <g clip-path="url(#clip0_611_1897)">
        <path d="M6.05549 12.7269V10.8675C6.05549 9.46509 5.88525 9.05539 5.35906 7.88933L2.6043 1.77539H0.654297L4.18287 9.59115V12.7269H6.05549ZM7.27811 7.06994L9.56858 1.77539H7.66501L5.37454 7.06994H7.27811ZM26.84 12.8845C27.7067 12.8845 28.4186 12.4748 28.9138 11.7027L29.0067 12.7269H30.7091V1.77539H28.8674V5.73054C28.4031 5.02145 27.7222 4.64327 26.9174 4.64327C25.1376 4.64327 23.8995 6.17175 23.8995 8.81903C23.8995 11.4348 25.1067 12.8845 26.84 12.8845ZM38.1531 12.1911V10.6627C37.5805 11.0566 36.621 11.4033 35.7233 11.4033C34.3769 11.4033 33.8662 10.7572 33.7888 9.43357H38.2305V8.44084C38.2305 5.68327 37.0388 4.64327 35.1972 4.64327C32.9531 4.64327 31.8852 6.39236 31.8852 8.78751C31.8852 11.5451 33.2162 12.8845 35.5686 12.8845C36.7448 12.8845 37.6114 12.5693 38.1531 12.1911ZM14.9852 7.32206C14.9852 5.39963 14.0257 4.67478 12.0757 4.67478C10.8686 4.67478 9.89358 5.19478 9.33644 5.60448V7.22751C9.92453 6.73903 10.8222 6.17175 11.8591 6.17175C12.7412 6.17175 13.1436 6.48691 13.1436 7.33781V7.84206H12.8495C10.0329 7.84206 8.7793 8.77175 8.7793 10.4263C8.7793 11.9548 9.73882 12.8372 11.1626 12.8372C12.246 12.8372 12.7102 12.4748 13.0662 12.0966H13.1436C13.1591 12.3015 13.221 12.5693 13.2829 12.7269H15.0781C15.0162 12.0808 14.9852 11.4348 14.9852 10.7887V7.32206ZM18.3281 7.03842C18.6686 6.61297 19.2103 6.25054 19.8757 6.25054C20.5257 6.25054 20.8198 6.53418 20.8198 7.13297V12.7269H22.6614V6.94388C22.6614 5.36812 22.0424 4.67478 20.5412 4.67478C19.4424 4.67478 18.7924 5.08448 18.421 5.46266H18.3281L18.2817 4.80085H16.4864V12.7269H18.3281V7.03842ZM43.8174 12.7269H45.8912L43.3531 8.64569L45.5507 4.80085H43.7091L42.3781 7.196L40.8924 4.80085H38.8186L41.171 8.59842L38.7257 12.7269H40.5983L42.1614 10.0481L43.8174 12.7269ZM27.3817 6.12448C28.3722 6.12448 28.8674 6.92812 28.8674 8.756C28.8674 10.5996 28.3412 11.4033 27.3043 11.4033C26.2983 11.4033 25.8031 10.6154 25.8031 8.81903C25.8031 6.94388 26.3293 6.12448 27.3817 6.12448ZM35.1662 6.12448C36.0793 6.12448 36.3579 6.8966 36.3579 7.88933V8.04691H33.7888C33.8352 6.7863 34.2841 6.12448 35.1662 6.12448ZM13.1436 10.836C12.9114 11.1827 12.4781 11.4663 11.8281 11.4663C11.0543 11.4663 10.6674 11.0093 10.6674 10.316C10.6674 9.40206 11.3019 9.08691 12.8805 9.08691H13.1436V10.836Z" fill="#D3D3D5"/>
        <mask id="mask0_611_1897" style="mask-type:luminance" maskUnits="userSpaceOnUse" x="48" y="-1" width="16" height="16">
            <path d="M63.0958 -0.000244141H48.8101V14.5452H63.0958V-0.000244141Z" fill="white"/>
        </mask>
        <g mask="url(#mask0_611_1897)">
            <path d="M51.1908 7.27231C51.1908 4.59457 53.3228 2.42383 55.9527 2.42383C58.5826 2.42383 60.7146 4.59457 60.7146 7.27231C60.7146 9.95006 58.5826 12.1208 55.9527 12.1208C53.3228 12.1208 51.1908 9.95006 51.1908 7.27231Z" fill="#21232D"/>
            <path d="M55.953 14.5452C54.178 14.5016 53.4754 13.2935 53.2608 12.1267C53.1444 11.4924 53.1955 10.4378 53.2608 10.0614C53.367 9.44785 53.5387 8.56606 53.7286 7.54285C54.0002 6.07665 54.7213 5.24269 56.2777 4.94529L58.8236 4.45026C58.891 4.06551 59.0188 3.04652 58.9024 2.41845C58.686 1.23926 57.7933 0.0184732 55.9815 -0.000244141C52.0354 -0.000243789 48.8101 3.25449 48.8101 7.27248C48.8101 11.2905 52.0067 14.5452 55.953 14.5452Z" fill="url(#paint0_linear_611_1897)"/>
            <path d="M55.9526 -0.000244141C57.7276 0.0434297 58.6058 1.25382 58.8204 2.42053C58.9368 3.05485 58.71 4.10717 58.6447 4.4836C58.5385 5.09711 58.3669 5.97891 58.1769 7.00212C57.9052 8.46831 57.1843 9.30228 55.6279 9.59967L53.2587 10.0733C53.1913 10.458 52.9687 11.4979 53.0851 12.1259C53.3016 13.3051 54.1123 14.5265 55.9241 14.5452C59.8702 14.5452 63.0955 11.2905 63.0955 7.27248C63.0955 3.2545 59.8988 -0.000244141 55.9526 -0.000244141Z" fill="url(#paint1_linear_611_1897)"/>
        </g>
        <path d="M70.2119 12.8846C71.3726 12.8846 72.1619 12.4591 72.6416 12.1282V10.5997C72.0226 11.0567 71.3416 11.4034 70.3511 11.4034C68.6488 11.4034 67.844 10.001 67.844 7.25913C67.844 4.43853 68.6178 3.09913 70.444 3.09913C71.2952 3.09913 72.0845 3.47731 72.6416 3.83974V2.31125C72.1464 1.94883 71.3416 1.61792 70.3511 1.61792C67.488 1.61792 65.9404 3.76095 65.9404 7.25913C65.9404 10.8519 67.55 12.8846 70.2119 12.8846Z" fill="#D3D3D5"/>
        <path d="M75.7242 1.77539H73.8826V12.7269H75.7242V1.77539Z" fill="#D3D3D5"/>
        <path d="M80.3937 4.64355C78.3663 4.64355 76.958 6.10901 76.958 8.77204C76.958 11.4193 78.3663 12.8848 80.3937 12.8848C82.4211 12.8848 83.8294 11.4193 83.8294 8.75628C83.8294 6.10901 82.4211 4.64355 80.3937 4.64355ZM80.3937 11.4036C79.3723 11.4036 78.8616 10.5999 78.8616 8.77204C78.8616 6.9284 79.3723 6.12477 80.3937 6.12477C81.4152 6.12477 81.9259 6.9284 81.9259 8.75628C81.9259 10.5999 81.4152 11.4036 80.3937 11.4036Z" fill="#D3D3D5"/>
        <path d="M89.3216 10.4893C88.9811 10.9147 88.4395 11.2771 87.774 11.2771C87.124 11.2771 86.83 10.9935 86.83 10.3947V4.80078H84.9883V10.5838C84.9883 12.1596 85.6073 12.8529 87.1085 12.8529C88.2073 12.8529 88.8573 12.4432 89.2288 12.065H89.3216L89.368 12.7268H91.1633V4.80078H89.3216V10.4893Z" fill="#D3D3D5"/>
        <path d="M95.3446 12.8845C96.2113 12.8845 96.9232 12.4748 97.4184 11.7027L97.5113 12.7269H99.2136V1.77539H97.372V5.73054C96.9077 5.02145 96.2267 4.64327 95.422 4.64327C93.6422 4.64327 92.4041 6.17175 92.4041 8.81903C92.4041 11.4348 93.6113 12.8845 95.3446 12.8845ZM95.8863 6.12448C96.8767 6.12448 97.372 6.92812 97.372 8.756C97.372 10.5996 96.8458 11.4033 95.8089 11.4033C94.8029 11.4033 94.3077 10.6154 94.3077 8.81903C94.3077 6.94388 94.8339 6.12448 95.8863 6.12448Z" fill="#D3D3D5"/>
    </g>
    <defs>
        <linearGradient id="paint0_linear_611_1897" x1="48.8101" y1="14.5452" x2="60.2918" y2="1.01852" gradientUnits="userSpaceOnUse">
            <stop stop-color="#D2DFFF"/>
            <stop offset="1" stop-color="#4E7FFF"/>
        </linearGradient>
        <linearGradient id="paint1_linear_611_1897" x1="63.0955" y1="-0.000244487" x2="51.4433" y2="13.1162" gradientUnits="userSpaceOnUse">
            <stop stop-color="#D2DFFF"/>
            <stop offset="1" stop-color="#4E7FFF"/>
        </linearGradient>
        <clipPath id="clip0_611_1897">
            <rect width="100" height="14.5455" fill="white"/>
        </clipPath>
    </defs>
</svg>
