<svg width="100" height="14" viewBox="0 0 100 14" fill="none" xmlns="http://www.w3.org/2000/svg">
<g clip-path="url(#clip0_2007_1064)">
<mask id="mask0_2007_1064" style="mask-type:luminance" maskUnits="userSpaceOnUse" x="0" y="0" width="100" height="14">
<path d="M100 0H0V14H100V0Z" fill="white"/>
</mask>
<g mask="url(#mask0_2007_1064)">
<path d="M70.439 12.3666C69.1125 12.3666 68.0769 11.9021 67.3321 10.9734C66.587 10.0345 66.2146 8.69688 66.2146 6.96051C66.2146 6.12261 66.3065 5.37051 66.4901 4.70422C66.6841 4.02784 66.9646 3.45747 67.3321 2.99308C67.6994 2.5186 68.1534 2.16022 68.6942 1.91794C69.2453 1.66555 69.8729 1.53937 70.5767 1.53937C71.0666 1.53937 71.5054 1.61003 71.8931 1.75136C72.2809 1.88261 72.5973 2.03403 72.8422 2.20565V3.67451C72.5667 3.50289 72.2401 3.34137 71.8626 3.18994C71.4953 3.0385 71.0973 2.96279 70.6686 2.96279C69.7605 2.96279 69.1025 3.29088 68.6942 3.94708C68.2962 4.59318 68.0973 5.59765 68.0973 6.96051C68.0973 8.28299 68.2962 9.27737 68.6942 9.94365C69.1025 10.6099 69.7298 10.9431 70.5767 10.9431C71.0666 10.9431 71.4902 10.8724 71.8473 10.7311C72.2043 10.5797 72.5361 10.3929 72.8422 10.1708V11.6397C72.6074 11.8012 72.2911 11.9627 71.8931 12.1242C71.5054 12.2857 71.0207 12.3666 70.439 12.3666Z" fill="white" fill-opacity="0.8"/>
<path d="M75.8935 12.2151H74.072V1.6908H75.8935V12.2151Z" fill="white" fill-opacity="0.8"/>
<path d="M80.5117 4.4469C81.0117 4.4469 81.471 4.53271 81.8892 4.70432C82.3076 4.87595 82.6647 5.13338 82.9607 5.47661C83.2566 5.80976 83.4862 6.22366 83.6494 6.71833C83.823 7.2029 83.9096 7.76319 83.9096 8.39919C83.9096 9.03519 83.823 9.60052 83.6494 10.0952C83.4862 10.5899 83.2566 11.0088 82.9607 11.352C82.6647 11.6852 82.3076 11.9377 81.8892 12.1092C81.471 12.2808 81.0117 12.3667 80.5117 12.3667C80.0117 12.3667 79.5524 12.2808 79.1342 12.1092C78.7158 11.9377 78.3587 11.6852 78.0627 11.352C77.7667 11.0088 77.5322 10.5949 77.3587 10.1103C77.1954 9.61566 77.1138 9.05032 77.1138 8.41434C77.1138 7.77833 77.1954 7.213 77.3587 6.71833C77.5322 6.22366 77.7667 5.80976 78.0627 5.47661C78.3587 5.13338 78.7158 4.87595 79.1342 4.70432C79.5524 4.53271 80.0117 4.4469 80.5117 4.4469ZM80.5117 10.9432C81.0219 10.9432 81.3994 10.7413 81.6443 10.3375C81.8995 9.93366 82.027 9.28756 82.027 8.39919C82.027 7.51081 81.8995 6.86976 81.6443 6.47604C81.3994 6.07223 81.0219 5.87034 80.5117 5.87034C80.0015 5.87034 79.6187 6.07223 79.3638 6.47604C79.1188 6.87985 78.9964 7.52595 78.9964 8.41434C78.9964 9.30271 79.1188 9.94881 79.3638 10.3526C79.6187 10.7463 80.0015 10.9432 80.5117 10.9432Z" fill="white" fill-opacity="0.8"/>
<path d="M89.3435 4.59833H91.1648V12.2152H89.3893L89.3435 11.5792H89.2516C89.0679 11.7609 88.8077 11.9325 88.471 12.0941C88.1444 12.2556 87.7057 12.3364 87.1547 12.3364C86.4097 12.3364 85.8741 12.1648 85.5475 11.8215C85.2209 11.4681 85.0577 10.9129 85.0577 10.1558V4.59833H86.8792V9.97405C86.8792 10.5394 87.1904 10.8221 87.8129 10.8221C88.1393 10.8221 88.4303 10.7463 88.6852 10.5949C88.9506 10.4435 89.17 10.2668 89.3435 10.0649V4.59833Z" fill="white" fill-opacity="0.8"/>
<path d="M97.3468 11.2308C96.8468 11.988 96.163 12.3666 95.2957 12.3666C94.8672 12.3666 94.4744 12.2807 94.117 12.1091C93.76 11.9376 93.4538 11.6851 93.1988 11.3519C92.9437 11.0188 92.7446 10.6099 92.6018 10.1254C92.459 9.64079 92.3876 9.08556 92.3876 8.45966C92.3876 7.82365 92.459 7.25832 92.6018 6.76365C92.7549 6.25889 92.9589 5.83994 93.2141 5.5068C93.4794 5.16357 93.7958 4.90108 94.163 4.71937C94.5304 4.53766 94.9334 4.44679 95.3722 4.44679C96.1682 4.44679 96.8109 4.79509 97.3008 5.49166V1.6908H99.1222V12.2151H97.4385L97.3468 11.2308ZM95.8314 5.87023C95.311 5.87023 94.9181 6.07717 94.6528 6.49108C94.3978 6.89489 94.2701 7.55108 94.2701 8.45966C94.2701 9.32784 94.3926 9.9588 94.6376 10.3525C94.8824 10.7462 95.2549 10.9431 95.7549 10.9431C96.2549 10.9431 96.6325 10.7563 96.8875 10.3828C97.1426 9.99917 97.2804 9.38337 97.3008 8.53536V8.14166C97.2804 7.35423 97.1477 6.77879 96.9028 6.41538C96.6579 6.05194 96.3008 5.87023 95.8314 5.87023Z" fill="white" fill-opacity="0.8"/>
<path d="M59.6632 12.6656C58.2518 13.6212 56.5501 13.5715 53.1348 13.5917L50.4231 13.5871L51.7949 9.93166L53.8276 9.92787C55.4809 9.93151 56.4673 9.80744 57.2698 9.23928C58.0506 8.686 58.5262 7.83542 59.0975 6.30059L59.8079 4.41642L63.7492 4.41486L62.8032 6.92104C61.6041 10.0929 61.0594 11.6886 59.6632 12.6656Z" fill="#2A9FFF"/>
<path d="M51.7759 1.33441C53.1873 0.378813 54.8889 0.428446 58.3043 0.408325L61.0159 0.412854L59.6442 4.06831L57.6115 4.0721C55.9582 4.06846 54.9718 4.19254 54.1693 4.76069C53.3884 5.31397 52.9129 6.16454 52.3415 7.69938L51.6312 9.58355L47.6898 9.58512L48.6359 7.07894C49.835 3.90707 50.3796 2.31138 51.7759 1.33441Z" fill="#2A9FFF"/>
<path d="M45.0378 4.59503H43.2216L41.8961 6.89927L40.4249 4.59503H38.3746L40.7038 8.24388L38.2858 12.2123H40.1357L41.6842 9.64367L43.322 12.2123H45.3834L42.865 8.28813L45.0378 4.59503Z" fill="white" fill-opacity="0.8"/>
<path d="M34.787 4.44083C32.5695 4.44083 31.5113 6.12734 31.5113 8.43101C31.5113 11.0766 32.8263 12.3666 35.1547 12.3666C36.3245 12.3666 37.1823 12.0688 37.7173 11.7052V10.2278C37.1493 10.6025 36.202 10.9444 35.3103 10.9444C33.9733 10.9444 33.472 10.3163 33.3936 9.04815H37.7951V8.08909C37.7951 5.44355 36.6144 4.44025 34.7864 4.44025L34.787 4.44083ZM35.9348 7.71444H33.3942C33.439 6.50199 33.8845 5.86244 34.7651 5.86244C35.6455 5.86244 35.9348 6.60083 35.9348 7.55988V7.71444Z" fill="white" fill-opacity="0.8"/>
<path d="M28.5236 5.48796C28.0665 4.80474 27.3868 4.44101 26.5959 4.44101C24.8244 4.44101 23.5987 5.94019 23.5987 8.45358C23.5987 10.967 24.8022 12.3667 26.518 12.3667C27.3759 12.3667 28.0781 11.9697 28.5683 11.2313L28.6572 12.2122H30.3397V1.68512H28.5236V5.48796ZM26.9751 10.9446C25.9837 10.9446 25.4934 10.2613 25.4934 8.45358C25.4934 6.64582 26.0057 5.8632 27.0535 5.8632C28.034 5.8632 28.5242 6.62399 28.5242 8.39842C28.5242 10.1729 28.0002 10.9446 26.9751 10.9446Z" fill="white" fill-opacity="0.8"/>
<path d="M20.2786 4.47382C19.1868 4.47382 18.552 4.85939 18.1836 5.22312H18.0832L18.0384 4.59506H16.267V12.2122H18.0832V6.74472C18.4288 6.33674 18.9637 5.98391 19.6206 5.98391C20.2775 5.98391 20.5564 6.25974 20.5564 6.83263V12.2122H22.3725V6.65622C22.3725 5.1352 21.7598 4.47382 20.2775 4.47382H20.2786Z" fill="white" fill-opacity="0.8"/>
<path d="M14.7752 7.02062C14.7752 5.16862 13.8279 4.47448 11.9007 4.47448C10.7083 4.46356 9.73895 4.97037 9.18194 5.36743V6.92178C9.77264 6.45864 10.6526 5.90758 11.6887 5.90758C12.5576 5.90758 12.959 6.21616 12.959 7.03211V7.51709H12.6692C9.87254 7.51709 8.63599 8.41005 8.63599 9.99715C8.63599 11.4745 9.58329 12.3231 10.9982 12.3231C12.068 12.3231 12.5245 11.9705 12.8812 11.6067H12.959C12.97 11.8049 13.0369 12.0589 13.0926 12.2129H14.8752C14.8083 11.5958 14.7746 10.9671 14.7746 10.35V7.02119L14.7752 7.02062ZM12.959 10.3936C12.725 10.7356 12.3015 10.9999 11.6557 10.9999C10.8867 10.9999 10.5079 10.5591 10.5079 9.89775C10.5079 9.0157 11.1318 8.71805 12.6918 8.71805H12.959V10.3936Z" fill="white" fill-opacity="0.8"/>
<path d="M7.53226 1.68512L5.25952 6.77799H7.15357L9.41526 1.68512H7.53226Z" fill="white" fill-opacity="0.8"/>
<path d="M2.51734 1.68512H0.5896L4.08843 9.20289V12.2122H5.93776V10.4263C5.93776 9.08165 5.7705 8.68458 5.24717 7.56005L2.51734 1.68512Z" fill="white" fill-opacity="0.8"/>
</g>
</g>
<defs>
<clipPath id="clip0_2007_1064">
<rect width="100" height="14" fill="white"/>
</clipPath>
</defs>
</svg>
