<svg width="30" height="30" viewBox="0 0 30 30" fill="none" xmlns="http://www.w3.org/2000/svg">
<g clip-path="url(#clip0_2006_3128)">
<path d="M20.2555 23.189C18.3747 24.4859 16.1071 24.4184 11.5559 24.4458L7.9425 24.4396L9.77053 19.4787L12.4791 19.4735C14.6823 19.4785 15.9968 19.3101 17.0662 18.539C18.1067 17.7881 18.7404 16.6338 19.5017 14.5508L20.4483 11.9937L25.7004 11.9916L24.4398 15.3928C22.8419 19.6975 22.1161 21.8631 20.2555 23.189Z" fill="#2A9FFF"/>
<path d="M9.7453 7.811C11.626 6.51411 13.8935 6.58147 18.4449 6.55417L22.0582 6.56031L20.2303 11.5213L17.5216 11.5264C15.3185 11.5215 14.004 11.6899 12.9346 12.461C11.8941 13.2118 11.2604 14.3662 10.4989 16.4492L9.55242 19.0063L4.30029 19.0084L5.56098 15.6071C7.15878 11.3025 7.88446 9.13688 9.7453 7.811Z" fill="#2A9FFF"/>
</g>
<defs>
<clipPath id="clip0_2006_3128">
<rect width="22" height="19" fill="white" transform="translate(4 6)"/>
</clipPath>
</defs>
</svg>
