<svg width="22" height="22" viewBox="0 0 22 22" fill="none" xmlns="http://www.w3.org/2000/svg">
    <mask id="mask0_611_951" style="mask-type:luminance" maskUnits="userSpaceOnUse" x="0" y="0" width="22" height="22">
        <path d="M22 0H0V22H22V0Z" fill="white"/>
    </mask>
    <g mask="url(#mask0_611_951)">
        <path d="M3.66614 11.0001C3.66614 6.94999 6.94945 3.66675 10.9995 3.66675C15.0495 3.66675 18.3328 6.94999 18.3328 11.0001C18.3328 15.0502 15.0495 18.3334 10.9995 18.3334C6.94945 18.3334 3.66614 15.0502 3.66614 11.0001Z" fill="#21232D"/>
        <path d="M11 22C8.2665 21.934 7.18446 20.1067 6.8541 18.3419C6.6748 17.3826 6.75345 15.7875 6.8541 15.2182C7.01763 14.2902 7.282 12.9565 7.57442 11.4089C7.99278 9.19131 9.10323 7.92994 11.5001 7.48013L15.4207 6.73139C15.5245 6.14946 15.7214 4.60823 15.5421 3.65827C15.2088 1.87475 13.8341 0.0283099 11.044 0C4.96687 5.31285e-07 0 4.92279 0 11C0 17.0772 4.92268 22 11 22Z" fill="url(#paint0_linear_611_951)"/>
        <path d="M10.9993 0C13.7328 0.0660567 15.0853 1.89677 15.4156 3.66142C15.5949 4.62082 15.2457 6.21247 15.145 6.78181C14.9815 7.70975 14.7173 9.04347 14.4247 10.5911C14.0063 12.8087 12.8961 14.0701 10.4992 14.5199L6.85067 15.2362C6.7469 15.8181 6.40406 17.3909 6.58336 18.3409C6.91666 20.1243 8.16517 21.9718 10.9553 22C17.0324 22 21.9993 17.0772 21.9993 11C21.9993 4.92279 17.0764 0 10.9993 0Z" fill="url(#paint1_linear_611_951)"/>
    </g>
    <defs>
        <linearGradient id="paint0_linear_611_951" x1="3.86814e-07" y1="22" x2="17.3125" y2="1.23306" gradientUnits="userSpaceOnUse">
            <stop stop-color="#D2DFFF"/>
            <stop offset="1" stop-color="#4E7FFF"/>
        </linearGradient>
        <linearGradient id="paint1_linear_611_951" x1="21.9993" y1="-5.24035e-07" x2="4.41563" y2="20.1533" gradientUnits="userSpaceOnUse">
            <stop stop-color="#D2DFFF"/>
            <stop offset="1" stop-color="#4E7FFF"/>
        </linearGradient>
    </defs>
</svg>
